PathFileType	4	(X/Y/Z)	/Users/itak/Documents/Research/Walk-IL/dataset/trc/00284_00010.trc
DataRate	CameraRate	NumFrames	NumMarkers	Units	OrigDataRate	OrigDataStartFrame	OrigNumFrames
100.000000	100.000000	4	54	mm	100.000000	313	626
Frame#	Time	RPSI			LPSI			L3			STRN			T10			C7			CLAV			RBAK			LBAK			LSHO			LUPA			LAEL			LAOL			LWTS			LWPS			LFRA			LIFD			LHPS			LHTS			RSHO			RUPA			RAEL			RAOL			RWTS			RWPS			RFRA			RIFD			RHTS			RHPS			RBHD			LFHD			RFHD			LBHD			LHIP			RASI			LASI			LKNE			LTHI			LANK			LTIP			LTOE			LMT1			LMT5			LHEE			RKNE			RANK			RTIP			RTOE			RMT5			RHEE			RMT1			RTHI			RHIP			*53			
		X1	Y1	Z1	X2	Y2	Z2	X3	Y3	Z3	X4	Y4	Z4	X5	Y5	Z5	X6	Y6	Z6	X7	Y7	Z7	X8	Y8	Z8	X9	Y9	Z9	X10	Y10	Z10	X11	Y11	Z11	X12	Y12	Z12	X13	Y13	Z13	X14	Y14	Z14	X15	Y15	Z15	X16	Y16	Z16	X17	Y17	Z17	X18	Y18	Z18	X19	Y19	Z19	X20	Y20	Z20	X21	Y21	Z21	X22	Y22	Z22	X23	Y23	Z23	X24	Y24	Z24	X25	Y25	Z25	X26	Y26	Z26	X27	Y27	Z27	X28	Y28	Z28	X29	Y29	Z29	X30	Y30	Z30	X31	Y31	Z31	X32	Y32	Z32	X33	Y33	Z33	X34	Y34	Z34	X35	Y35	Z35	X36	Y36	Z36	X37	Y37	Z37	X38	Y38	Z38	X39	Y39	Z39	X40	Y40	Z40	X41	Y41	Z41	X42	Y42	Z42	X43	Y43	Z43	X44	Y44	Z44	X45	Y45	Z45	X46	Y46	Z46	X47	Y47	Z47	X48	Y48	Z48	X49	Y49	Z49	X50	Y50	Z50	X51	Y51	Z51	X52	Y52	Z52	X53	Y53	Z53	X54	Y54	Z54	

314	3.13	128.8589172363281	977.068115234375	-456.4950866699219	122.1299667358398	951.1806030273438	-283.56591796875	113.6826858520508	1025.488037109375	-377.2615966796875	-108.7143783569336	1214.3662109375	-335.3209228515625	143.3576354980469	1133.090576171875	-378.3090209960938	128.5445709228516	1376.991943359375	-331.5596923828125	-37.08633422851562	1308.797607421875	-324.7597351074219	155.8332366943359	1247.975341796875	-428.9686889648438	156.7446899414062	1325.9521484375	-238.5810852050781	77.08525848388672	1334.357055664062	-170.8369903564453	130.9956359863281	1216.186157226562	-120.6069869995117	163.7652893066406	1019.043701171875	-133.23046875	191.0693359375	1016.171630859375	-214.9973907470703	125.2468185424805	781.5191040039062	-166.8317413330078	185.6248016357422	781.4041137695312	-126.6596069335938	178.8739471435547	914.4098510742188	-129.1792755126953	185.5005493164062	606.891357421875	-197.9404296875	208.8407592773438	697.9571533203125	-141.3796081542969	145.7342224121094	679.873046875	-156.1097412109375	39.99386978149414	1382.4375	-478.8504333496094	32.66699981689453	1332.435791015625	-551.640625	-13.73746109008789	1083.903564453125	-645.3076782226562	17.21596336364746	1049.351318359375	-561.9973754882812	-233.5604858398438	1021.738586425781	-575.0234985351562	-222.6306610107422	981.9175415039062	-648.6530151367188	-70.43412017822266	1050.655151367188	-656.726806640625	-384.969970703125	921.1353759765625	-541.2860107421875	-346.5509338378906	979.8118896484375	-572.6912841796875	-327.1597290039062	935.9667358398438	-624.44775390625	77.49317932128906	1555.489501953125	-387.8356323242188	-48.00429534912109	1562.946655273438	-215.7844543457031	-77.57764434814453	1571.74755859375	-303.9809265136719	122.2353134155273	1531.276733398438	-249.8771820068359	48.2231559753418	898.5087890625	-194.8775329589844	-86.724365234375	925.1871948242188	-506.1235656738281	-86.23793029785156	911.3095092773438	-252.7828674316406	-178.3641357421875	477.8903503417969	-271.8523254394531	-114.0631790161133	603.1408081054688	-228.4078369140625	-178.7039642333984	44.37861251831055	-361.5935974121094	-186.0580596923828	243.8667602539062	-306.8300170898438	-395.3721008300781	38.07818984985352	-377.708251953125	-332.6399536132812	25.44861602783203	-429.5925598144531	-299.2499694824219	43.46147537231445	-326.243896484375	-148.3184204101562	31.17687606811523	-428.5512084960938	117.4145736694336	466.716796875	-572.92529296875	435.0454406738281	130.7402801513672	-558.7776489257812	180.3313293457031	357.0807495117188	-572.7086791992188	287.8965148925781	37.24217987060547	-514.8666381835938	367.6862487792969	52.19583511352539	-583.1278686523438	467.0337219238281	167.2533264160156	-505.4513854980469	320.3664245605469	56.61662673950195	-472.4453735351562	20.60365676879883	714.0513916015625	-581.2481689453125	38.10398101806641	929.1607666015625	-569.9684448242188	nan	nan	nan	
315	3.14	116.8183441162109	978.1880493164062	-455.5618591308594	112.3278274536133	953.303466796875	-282.3944702148438	102.6881637573242	1027.625244140625	-376.1088562011719	-119.4524078369141	1216.879272460938	-331.1164855957031	132.1454772949219	1135.290405273438	-377.4168701171875	117.968147277832	1378.794799804688	-330.0907287597656	-47.498046875	1311.349365234375	-321.440673828125	143.8788909912109	1250.296142578125	-427.9784545898438	147.1514434814453	1327.599243164062	-237.6018676757812	68.43553924560547	1336.2080078125	-169.0282745361328	122.2598342895508	1217.93017578125	-119.4913482666016	153.6278228759766	1020.579895019531	-132.3293762207031	180.0616455078125	1017.521606445312	-214.3890686035156	110.5347366333008	783.5513305664062	-164.3597106933594	171.5090942382812	782.4741821289062	-125.4003372192383	167.2163238525391	915.6119995117188	-128.272216796875	166.3932189941406	607.9489135742188	-196.4600677490234	192.6950225830078	698.4945678710938	-140.4510650634766	129.0105590820312	681.883544921875	-153.6930847167969	27.91645431518555	1385.275268554688	-476.2249450683594	20.08058547973633	1335.701538085938	-549.1805419921875	-21.44525909423828	1086.084228515625	-642.2527465820312	10.53800773620605	1052.851684570312	-558.8336791992188	-239.0590972900391	1015.1669921875	-571.489990234375	-226.4704132080078	976.0651245117188	-645.2822265625	-77.24996948242188	1050.797729492188	-653.4811401367188	-386.4996337890625	908.48095703125	-538.550048828125	-350.4313049316406	968.8114013671875	-569.521728515625	-329.0209655761719	926.0303955078125	-621.4187622070312	67.65137481689453	1557.395385742188	-385.150634765625	-55.37868118286133	1565.28076171875	-211.3995208740234	-86.06553649902344	1574.652954101562	-299.1483764648438	114.0618133544922	1532.308837890625	-247.94580078125	39.78617858886719	901.0070190429688	-192.5537719726562	-99.23799896240234	927.2836303710938	-501.50244140625	-95.49292755126953	913.7501831054688	-248.4229278564453	-184.6734313964844	478.14990234375	-270.2215270996094	-121.9794464111328	604.2073974609375	-226.0450439453125	-178.9799041748047	44.67676544189453	-361.4034118652344	-189.6505584716797	244.0193939208984	-305.9769897460938	-395.6314086914062	37.36491012573242	-378.0830688476562	-332.5999450683594	25.46111869812012	-430.0254516601562	-299.5493469238281	43.37694549560547	-326.468994140625	-148.3599548339844	31.36287307739258	-428.338623046875	95.52355194091797	465.7428588867188	-573.8086547851562	422.9673461914062	140.3681488037109	-562.7249755859375	160.8356170654297	357.8655395507812	-574.3663940429688	286.4297180175781	36.533935546875	-515.4130859375	362.1837768554688	56.44857025146484	-585.1640014648438	452.845947265625	179.2075347900391	-510.218994140625	316.1628112792969	59.12846374511719	-473.999755859375	3.541259527206421	714.6394653320312	-578.6957397460938	24.40499496459961	930.1986694335938	-567.536376953125	nan	nan	nan	
316	3.15	105.3673095703125	978.970703125	-454.3302307128906	102.7986526489258	955.2200927734375	-280.9565124511719	92.04997253417969	1029.71142578125	-374.6276550292969	-130.0226745605469	1219.12548828125	-326.9954223632812	121.1912155151367	1137.458129882812	-376.2588806152344	107.3894729614258	1380.584228515625	-328.5467834472656	-57.84410858154297	1313.730224609375	-318.1658935546875	132.1172943115234	1252.578247070312	-426.77099609375	137.4885101318359	1329.2763671875	-236.4942779541016	59.63919448852539	1338.00390625	-167.1833190917969	113.4028778076172	1219.651977539062	-118.2607955932617	143.5657196044922	1022.097778320312	-131.2827301025391	169.2621459960938	1018.919799804688	-213.5817565917969	95.49708557128906	785.8400268554688	-161.6669616699219	157.0306243896484	783.5614013671875	-123.8407211303711	155.5199890136719	916.7977294921875	-127.1667633056641	146.3137054443359	609.1179809570312	-194.4969482421875	175.8951721191406	699.0133056640625	-139.1490325927734	111.6241073608398	684.0494995117188	-151.0526275634766	15.97264575958252	1387.948364257812	-473.5910949707031	7.647477626800537	1338.7919921875	-546.7237548828125	-29.37543678283691	1088.269165039062	-639.2979125976562	3.744473218917847	1056.281616210938	-555.8676147460938	-244.2865753173828	1008.047607421875	-568.1971435546875	-229.9520721435547	969.9132080078125	-642.2240600585938	-84.1766357421875	1050.879760742188	-650.3715209960938	-387.2147827148438	895.0261840820312	-536.3482055664062	-353.7803039550781	957.0794677734375	-566.7385864257812	-330.2989196777344	915.6033325195312	-618.866943359375	57.73394775390625	1559.19384765625	-382.49658203125	-62.73493194580078	1567.519653320312	-207.0274963378906	-94.56053924560547	1577.490844726562	-294.3096618652344	105.8454742431641	1533.198608398438	-246.0906066894531	31.4480152130127	903.3238525390625	-190.0670166015625	-111.2076873779297	929.26611328125	-497.020263671875	-104.4520111083984	915.958740234375	-244.2272644042969	-189.9985656738281	478.0322265625	-268.6396789550781	-128.8332977294922	604.7127685546875	-223.7886657714844	-179.1665191650391	44.94055938720703	-361.2728576660156	-192.6269378662109	243.9947814941406	-305.2499084472656	-395.79150390625	36.95781707763672	-378.3174438476562	-332.5354309082031	25.53135299682617	-430.331298828125	-299.7106323242188	43.35626983642578	-326.6299133300781	-148.3700714111328	31.52309799194336	-428.2068176269531	72.61288452148438	464.5558471679688	-574.4330444335938	409.1698608398438	150.3787841796875	-567.0162353515625	139.9679412841797	358.3112182617188	-575.6551513671875	284.0220031738281	35.67327117919922	-516.0099487304688	355.5108337402344	61.47643280029297	-587.30859375	437.0176391601562	191.2739868164062	-515.3893432617188	311.3152465820312	62.02854156494141	-475.6101379394531	-13.45438289642334	715.1709594726562	-576.076171875	11.39313888549805	931.0185546875	-564.8864135742188	nan	nan	nan	
317	3.16	94.49600219726562	979.3960571289062	-452.8753967285156	93.57767486572266	956.9496459960938	-279.3091735839844	81.75902557373047	1031.723022460938	-372.8536376953125	-140.4134063720703	1221.041870117188	-323.0116577148438	110.5119705200195	1139.5537109375	-374.8467712402344	96.84853363037109	1382.338012695312	-326.9158020019531	-68.12823486328125	1315.869384765625	-314.9584045410156	120.5867767333984	1254.777709960938	-425.3524780273438	127.7799606323242	1330.955688476562	-235.2381286621094	50.68890762329102	1339.692749023438	-165.2919311523438	104.4094619750977	1221.278076171875	-116.8977203369141	133.5504302978516	1023.524780273438	-130.0864715576172	158.6697998046875	1020.284545898438	-212.5601654052734	80.16889190673828	788.3724365234375	-158.7544403076172	142.2232818603516	784.6336059570312	-121.9751968383789	143.7720336914062	917.9215087890625	-125.8544158935547	125.3891372680664	610.39990234375	-192.00634765625	158.5107727050781	699.5099487304688	-137.4376525878906	93.65573120117188	686.3587036132812	-148.1884155273438	4.193859577178955	1390.405029296875	-470.9559020996094	-4.589480876922607	1341.638427734375	-544.2694091796875	-37.585693359375	1090.387084960938	-636.4512939453125	-3.217784643173218	1059.539306640625	-553.1142578125	-249.2235260009766	1000.381408691406	-565.134521484375	-233.1220397949219	963.4791870117188	-639.4686279296875	-91.27780914306641	1050.84765625	-647.4009399414062	-387.0591125488281	880.8609008789062	-534.6303100585938	-356.5502319335938	944.671142578125	-564.3020629882812	-331.0267333984375	904.739501953125	-616.7649536132812	47.74970245361328	1560.865356445312	-379.8732604980469	-70.10566711425781	1569.6240234375	-202.6962890625	-103.0833435058594	1580.201782226562	-289.5003662109375	97.56920623779297	1533.9580078125	-244.2946014404297	23.24765968322754	905.4774780273438	-187.4508972167969	-122.6759567260742	931.0172729492188	-492.7092590332031	-113.1115264892578	917.9102172851562	-240.2161407470703	-194.4403076171875	477.6056213378906	-267.0757751464844	-134.6943969726562	604.7559204101562	-221.6175842285156	-179.2946929931641	45.18335723876953	-361.1991882324219	-195.0098571777344	243.8168182373047	-304.6308288574219	-395.8988037109375	36.74697494506836	-378.4678955078125	-332.4623107910156	25.60989189147949	-430.5476379394531	-299.7835083007812	43.37046432495117	-326.7479248046875	-148.3603668212891	31.63774490356445	-428.154296875	48.82263946533203	463.2683715820312	-574.6876831054688	393.6384582519531	160.6062469482422	-571.577880859375	117.8665466308594	358.5025634765625	-576.4778442382812	280.502197265625	34.72642135620117	-516.6445922851562	347.455078125	67.23011779785156	-589.5639038085938	419.5625610351562	203.3451232910156	-520.8685302734375	305.7076416015625	65.37908935546875	-477.2918395996094	-30.29464912414551	715.6515502929688	-573.3942260742188	-0.9595180153846741	931.5274658203125	-562.070068359375	nan	nan	nan	
